Ripped to 630Mb with hardcoded english subs.

Managed to get surprisinlgy good quality.

Subs on all speeech, as I got a question on this earlier.


Btw sorry for wrong info as it isn't a DVDR but an R5!

If you want good quality and a small file download this one =)

Seed 'til death!

Cheers!

/Unicx

General
Complete name                    : 2012 (2009) DVDRip XviD-Unicx Eng-subs.avi
Format                           : AVI
Format/Info                      : Audio Video Interleave
File size                        : 631 MiB
Duration                         : 2h 31mn
Overall bit rate                 : 582 Kbps
Writing application              : VirtualDubMod 1.5.10.2 (build 2540/release)
Writing library                  : VirtualDub build 32661/release

Video
ID                               : 0
Format                           : MPEG-4 Visual
Format profile                   : Advanced Simple@L5
Format settings, BVOP            : Yes
Format settings, QPel            : No
Format settings, GMC             : No warppoints
Format settings, Matrix          : Default (H.263)
Muxing mode                      : Packed bitstream
Codec ID                         : XVID
Codec ID/Hint                    : XviD
Duration                         : 2h 31mn
Bit rate                         : 452 Kbps
Width                            : 570 pixels
Height                           : 242 pixels
Display aspect ratio             : 2.35:1
Frame rate                       : 25.000 fps
Resolution                       : 8 bits
Colorimetry                      : 4:2:0
Scan type                        : Progressive
Bits/(Pixel*Frame)               : 0.131
Stream size                      : 490 MiB (78%)
Writing library                  : XviD 1.3.0.dev55

Audio
ID                               : 1
Format                           : MPEG Audio
Format version                   : Version 1
Format profile                   : Layer 3
Mode                             : Joint stereo
Codec ID                         : 55
Codec ID/Hint                    : MP3
Duration                         : 2h 31mn
Bit rate mode                    : Variable
Bit rate                         : 117 Kbps
Channel(s)                       : 2 channels
Sampling rate                    : 48.0 KHz
Stream size                      : 127 MiB (20%)
Alignment                        : Aligned on interleaves
Interleave, duration             : 24 ms (0.60 video frame)
Interleave, preload duration     : 163 ms
